<svg width="80" height="80" viewBox="0 0 80 80" fill="none" xmlns="http://www.w3.org/2000/svg">
<g clip-path="url(#clip0_6053_299)">
<path d="M77.6562 24.7708H2.34375C1.04937 24.7708 0 23.7214 0 22.427V2.34375C0 1.04937 1.04937 0 2.34375 0H77.6562C78.9506 0 80 1.04937 80 2.34375V22.427C80 23.7214 78.9506 24.7708 77.6562 24.7708Z" fill="#F7FAFC"/>
<path d="M80 22.427V2.34375C80 1.04937 78.9506 0 77.6562 0H40V24.7708H77.6562C78.9506 24.7708 80 23.7214 80 22.427Z" fill="#EDF1F8"/>
<path d="M77.6562 69.9585H2.34375C1.04937 69.9585 0 68.9091 0 67.6148V22.4272C0 21.1329 1.04937 20.0835 2.34375 20.0835H77.6562C78.9506 20.0835 80 21.1329 80 22.4272V67.6148C80 68.9093 78.9506 69.9585 77.6562 69.9585Z" fill="#413A55"/>
<path d="M77.6562 20.0835H40V69.9585H77.6562C78.9506 69.9585 80 68.9091 80 67.6148V22.4272C80 21.1329 78.9506 20.0835 77.6562 20.0835Z" fill="#292845"/>
<path d="M50.0418 44.8542C48.7474 44.8542 47.698 43.8048 47.698 42.5105V34.8125H32.3022V42.5105C32.3022 43.8048 31.2529 44.8542 29.9585 44.8542C28.6641 44.8542 27.6147 43.8048 27.6147 42.5105V32.4688C27.6147 31.1744 28.6641 30.125 29.9585 30.125H50.0418C51.3362 30.125 52.3855 31.1744 52.3855 32.4688V42.5105C52.3855 43.8048 51.3362 44.8542 50.0418 44.8542Z" fill="#FB9745"/>
<path d="M47.698 42.5105C47.698 43.8048 48.7473 44.8542 50.0417 44.8542C51.3361 44.8542 52.3855 43.8048 52.3855 42.5105V32.4688C52.3855 31.1744 51.3361 30.125 50.0417 30.125H40V34.8125H47.698V42.5105Z" fill="#FC5E25"/>
<path d="M67.6143 79.9998H12.3853C11.0909 79.9998 10.0415 78.9504 10.0415 77.656V42.5102C10.0415 41.4232 10.7888 40.479 11.8468 40.2291C12.9048 39.9791 13.9954 40.4898 14.4817 41.4621L21.3651 55.229H58.6346L65.5181 41.4621C66.0042 40.4899 67.0946 39.9788 68.1529 40.2291C69.2109 40.4788 69.9582 41.4232 69.9582 42.5102V77.656C69.9581 78.9504 68.9088 79.9998 67.6143 79.9998Z" fill="#FB9745"/>
<path d="M69.9583 77.656V42.5102C69.9583 41.4232 69.2109 40.479 68.153 40.2291C67.0947 39.9788 66.0042 40.4899 65.5181 41.4621L58.6347 55.229H40V79.9998H67.6145C68.9091 79.9998 69.9583 78.9504 69.9583 77.656Z" fill="#FC5E25"/>
<path d="M60.0831 59.9165H19.9166C19.0288 59.9165 18.2174 59.4149 17.8202 58.6209L10.2889 43.5584C9.92564 42.832 9.96454 41.969 10.3916 41.2781C10.8186 40.5871 11.573 40.1665 12.3853 40.1665H67.6146C68.4269 40.1665 69.1813 40.5871 69.6083 41.2781C70.0353 41.969 70.0741 42.8318 69.711 43.5584L62.1797 58.6209C61.7825 59.4149 60.971 59.9165 60.0831 59.9165Z" fill="#FFC77C"/>
<path d="M62.1797 58.6209L69.7109 43.5584C70.0742 42.832 70.0353 41.969 69.6083 41.2781C69.1813 40.5871 68.4269 40.1665 67.6145 40.1665H40V59.9165H60.0833C60.9711 59.9165 61.7827 59.4149 62.1797 58.6209Z" fill="#FB9745"/>
<path d="M14.8956 12.3853H12.3853C11.0909 12.3853 10.0415 11.3359 10.0415 10.0415C10.0415 8.74713 11.0909 7.69775 12.3853 7.69775H14.8957C16.1901 7.69775 17.2395 8.74713 17.2395 10.0415C17.2395 11.3359 16.1901 12.3853 14.8956 12.3853Z" fill="#FA598E"/>
<path d="M26.1924 12.3853H23.6821C22.3878 12.3853 21.3384 11.3359 21.3384 10.0415C21.3384 8.74713 22.3878 7.69775 23.6821 7.69775H26.1924C27.4868 7.69775 28.5362 8.74713 28.5362 10.0415C28.5362 11.3359 27.4868 12.3853 26.1924 12.3853Z" fill="#FFC77C"/>
<path d="M37.4893 12.3853H34.979C33.6846 12.3853 32.6353 11.3359 32.6353 10.0415C32.6353 8.74713 33.6846 7.69775 34.979 7.69775H37.4893C38.7837 7.69775 39.8331 8.74713 39.8331 10.0415C39.8331 11.3359 38.7837 12.3853 37.4893 12.3853Z" fill="#2DD796"/>
<path d="M67.6145 12.3853H47.5312C46.2369 12.3853 45.1875 11.3359 45.1875 10.0415C45.1875 8.74713 46.2369 7.69775 47.5312 7.69775H67.6145C68.9089 7.69775 69.9583 8.74713 69.9583 10.0415C69.9583 11.3359 68.9091 12.3853 67.6145 12.3853Z" fill="#E2E7F3"/>
<path d="M27.4478 64.7708C26.1534 64.7708 25.104 63.7214 25.104 62.427V57.4063C25.104 56.1119 26.1534 55.0625 27.4478 55.0625C28.7421 55.0625 29.7915 56.1119 29.7915 57.4063V62.427C29.7915 63.7214 28.7421 64.7708 27.4478 64.7708Z" fill="#413A55"/>
<path d="M52.5522 64.7708C51.2579 64.7708 50.2085 63.7214 50.2085 62.427V57.4063C50.2085 56.1119 51.2579 55.0625 52.5522 55.0625C53.8466 55.0625 54.896 56.1119 54.896 57.4063V62.427C54.896 63.7214 53.8468 64.7708 52.5522 64.7708Z" fill="#292845"/>
</g>
<defs>
<clipPath id="clip0_6053_299">
<rect width="80" height="80" fill="white"/>
</clipPath>
</defs>
</svg>
