<svg width="80" height="80" viewBox="0 0 80 80" fill="none" xmlns="http://www.w3.org/2000/svg">
<g clip-path="url(#clip0_6053_1192)">
<path d="M55.9159 46.678L35.8325 26.5948C34.9172 25.6795 34.9172 24.1955 35.8325 23.2802C36.7476 22.3649 38.2317 22.3649 39.147 23.2802L59.2304 43.3635C60.1458 44.2788 60.1458 45.7627 59.2304 46.678C58.315 47.5935 56.8309 47.5932 55.9159 46.678Z" fill="#121634"/>
<path d="M5.70748 46.678C4.79217 45.7627 4.79217 44.2788 5.70748 43.3635L25.7908 23.2802C26.7059 22.3649 28.19 22.3649 29.1053 23.2802C30.0206 24.1955 30.0206 25.6795 29.1053 26.5948L9.02201 46.678C8.1067 47.5935 6.62248 47.5932 5.70748 46.678Z" fill="#292845"/>
<path d="M57.5734 80.0002H7.36514C6.20826 80.0002 5.22451 79.1562 5.04857 78.0129L0.0277925 45.3774C-0.0762701 44.7015 0.120136 44.014 0.565449 43.4949C1.01076 42.976 1.66045 42.6772 2.3442 42.6772H62.5942C63.278 42.6772 63.9278 42.976 64.373 43.4949C64.8183 44.014 65.0147 44.7015 64.9106 45.3774L59.8898 78.0129C59.714 79.1562 58.7303 80.0002 57.5734 80.0002Z" fill="#FA598E"/>
<path d="M62.5938 42.6772H32.4688V80.0002H57.573C58.7298 80.0002 59.7136 79.1562 59.8895 78.0129L64.9103 45.3774C65.0144 44.7015 64.818 44.014 64.3727 43.4949C63.9273 42.976 63.2777 42.6772 62.5938 42.6772Z" fill="#F81972"/>
<path d="M16.4774 69.9582C15.2802 69.9582 14.2587 69.0456 14.1463 67.8299L12.9867 55.2779C12.8676 53.989 13.8159 52.8476 15.1049 52.7285C16.3937 52.6115 17.5352 53.5578 17.6543 54.8468L18.814 67.3988C18.9331 68.6878 17.9848 69.8292 16.6957 69.9482C16.6224 69.9549 16.5496 69.9582 16.4774 69.9582Z" fill="#FC89AB"/>
<path d="M48.4604 69.9586C48.3882 69.9586 48.3154 69.9553 48.2421 69.9486C46.9531 69.8295 46.0048 68.6881 46.1239 67.3991L47.2837 54.847C47.4028 53.558 48.5451 52.6094 49.8331 52.7289C51.1221 52.848 52.0704 53.9894 51.9514 55.2783L50.7915 67.8303C50.6792 69.0459 49.6575 69.9586 48.4604 69.9586Z" fill="#FA598E"/>
<path d="M27.1381 69.9583C25.877 69.9583 24.8359 68.956 24.7969 67.6867L24.4103 55.1347C24.3705 53.841 25.3869 52.7597 26.6808 52.7199C27.9786 52.6803 29.0558 53.6966 29.0956 54.9903L29.4822 67.5424C29.522 68.8363 28.5056 69.9174 27.2117 69.9572C27.187 69.958 27.1625 69.9583 27.1381 69.9583Z" fill="#FC89AB"/>
<path d="M37.8001 69.9582C37.7757 69.9582 37.7514 69.9579 37.7267 69.9571C36.4329 69.9173 35.4164 68.8362 35.4562 67.5423L35.8428 54.9902C35.8826 53.6965 36.9601 52.682 38.2576 52.7198C39.5514 52.7596 40.5679 53.8407 40.5281 55.1346L40.1415 67.6866C40.1025 68.9559 39.0612 69.9582 37.8001 69.9582Z" fill="#FA598E"/>
<path d="M67.6147 29.7915C66.3204 29.7915 65.271 28.7421 65.271 27.4478C65.271 20.4346 59.5654 14.729 52.5522 14.729C51.2579 14.729 50.2085 13.6796 50.2085 12.3853C50.2085 11.0909 51.2579 10.0415 52.5522 10.0415C62.1502 10.0415 69.9585 17.8499 69.9585 27.4478C69.9585 28.7421 68.9093 29.7915 67.6147 29.7915Z" fill="#00D7F5"/>
<path d="M77.6565 29.7917C76.3621 29.7917 75.3127 28.7423 75.3127 27.448C75.3127 14.8978 65.1024 4.6875 52.5522 4.6875C51.2579 4.6875 50.2085 3.63812 50.2085 2.34375C50.2085 1.04937 51.2579 0 52.5522 0C67.6871 0 80.0002 12.3131 80.0002 27.448C80.0002 28.7423 78.9508 29.7917 77.6565 29.7917Z" fill="#00D7F5"/>
<path d="M57.5732 29.7918C56.2788 29.7918 55.2294 28.7424 55.2294 27.448C55.2294 25.9719 54.0283 24.771 52.5522 24.771C51.2579 24.771 50.2085 23.7216 50.2085 22.4272C50.2085 21.1329 51.2579 20.0835 52.5522 20.0835C56.613 20.0835 59.9169 23.3872 59.9169 27.448C59.9169 28.7424 58.8676 29.7918 57.5732 29.7918Z" fill="#00D7F5"/>
<path d="M65.2709 27.4479C65.2709 28.7422 66.3203 29.7916 67.6146 29.7916C68.909 29.7916 69.9584 28.7422 69.9584 27.4479C69.9584 22.6489 68.0062 18.2974 64.8545 15.1455L61.5415 18.4585C63.8445 20.7614 65.2709 23.9411 65.2709 27.4479Z" fill="#00A4CC"/>
<path d="M75.3126 27.4479C75.3126 28.7422 76.362 29.7916 77.6563 29.7916C78.9507 29.7916 80.0001 28.7422 80.0001 27.4479C80.0001 19.8804 76.9218 13.0185 71.9516 8.04834L68.6387 11.3613C72.7599 15.4826 75.3126 21.1727 75.3126 27.4479Z" fill="#00A4CC"/>
<path d="M55.2293 27.4478C55.2293 28.7422 56.2787 29.7916 57.5731 29.7916C58.8675 29.7916 59.9168 28.7422 59.9168 27.4478C59.9168 25.4174 59.0909 23.5763 57.7573 22.2427L54.4443 25.5556C54.929 26.0403 55.2293 26.7097 55.2293 27.4478Z" fill="#00A4CC"/>
</g>
<defs>
<clipPath id="clip0_6053_1192">
<rect width="80" height="80" fill="white"/>
</clipPath>
</defs>
</svg>
