<svg width="80" height="80" viewBox="0 0 80 80" fill="none" xmlns="http://www.w3.org/2000/svg">
<g clip-path="url(#clip0_6053_323)">
<path d="M33.9572 43.9517L33.0442 34.8126C32.9244 33.6145 31.9161 32.7021 30.712 32.7021H6.60204C5.39782 32.7021 4.38969 33.6145 4.27 34.8126L0.00891145 77.4231C-0.0821823 78.3345 0.512036 80.0001 2.39532 80.0001H25.1042C27.6931 80.0001 29.7889 77.9015 29.7889 75.3126V48.6571L33.09 46.0136C33.7095 45.5175 34.0359 44.7415 33.9572 43.9517Z" fill="#E7E9EB"/>
<path d="M31.5729 20.0833L29.7755 2.11047C29.6559 0.912344 28.6476 0 27.4435 0H9.87242C8.6682 0 7.66007 0.912344 7.54039 2.11047L5.74304 20.0833C5.65195 20.9947 6.24617 22.6603 8.12929 22.6603H29.1865C31.0698 22.6603 31.664 20.9947 31.5729 20.0833Z" fill="#E7E9EB"/>
<path d="M29.7888 75.3126V48.6571L33.0899 46.0136C33.7095 45.5175 34.0357 44.7415 33.9571 43.9517L33.0442 34.8126C32.9243 33.6145 31.916 32.7021 30.712 32.7021H18.6587V80.0001H25.1042C27.6929 80.0001 29.7888 77.9015 29.7888 75.3126Z" fill="#EDF1F8"/>
<path d="M31.5728 20.0833L29.7754 2.11047C29.6557 0.912344 28.6474 0 27.4434 0H18.6587V22.6603H29.1865C31.0696 22.6603 31.6638 20.9947 31.5728 20.0833Z" fill="#EDF1F8"/>
<path d="M55.0625 29.7915C53.7681 29.7915 52.7187 28.7421 52.7187 27.4478C52.7187 20.4346 47.0131 14.729 40 14.729C38.7056 14.729 37.6562 13.6796 37.6562 12.3853C37.6562 11.0909 38.7056 10.0415 40 10.0415C49.598 10.0415 57.4062 17.8499 57.4062 27.4478C57.4062 28.7421 56.357 29.7915 55.0625 29.7915Z" fill="#00D7F5"/>
<path d="M65.1042 29.7917C63.8098 29.7917 62.7605 28.7423 62.7605 27.448C62.7605 14.8978 52.5502 4.6875 40 4.6875C38.7056 4.6875 37.6562 3.63813 37.6562 2.34375C37.6562 1.04938 38.7056 0 40 0C55.1348 0 67.448 12.3131 67.448 27.448C67.448 28.7423 66.3986 29.7917 65.1042 29.7917Z" fill="#00D7F5"/>
<path d="M45.0209 29.7918C43.7266 29.7918 42.6772 28.7424 42.6772 27.448C42.6772 25.9719 41.4761 24.771 40 24.771C38.7056 24.771 37.6562 23.7216 37.6562 22.4272C37.6562 21.1329 38.7056 20.0835 40 20.0835C44.0608 20.0835 47.3647 23.3872 47.3647 27.448C47.3647 28.7424 46.3153 29.7918 45.0209 29.7918Z" fill="#00D7F5"/>
<path d="M52.7189 27.4479C52.7189 28.7422 53.7682 29.7916 55.0626 29.7916C56.357 29.7916 57.4064 28.7422 57.4064 27.4479C57.4064 22.6489 55.4542 18.2974 52.3025 15.1455L48.9895 18.4585C51.2925 20.7614 52.7189 23.9411 52.7189 27.4479Z" fill="#00A4CC"/>
<path d="M62.7606 27.4479C62.7606 28.7422 63.8099 29.7916 65.1043 29.7916C66.3987 29.7916 67.4481 28.7422 67.4481 27.4479C67.4481 19.8804 64.3698 13.0185 59.3996 8.04834L56.0867 11.3613C60.2079 15.4826 62.7606 21.1727 62.7606 27.4479Z" fill="#00A4CC"/>
<path d="M42.6771 27.4478C42.6771 28.7422 43.7265 29.7916 45.0208 29.7916C46.3152 29.7916 47.3646 28.7422 47.3646 27.4478C47.3646 25.4174 46.5387 23.5763 45.2051 22.2427L41.8921 25.5556C42.3768 26.0403 42.6771 26.7097 42.6771 27.4478Z" fill="#00A4CC"/>
<path d="M4.27002 34.8127H33.0442L31.5728 20.0835H5.74299L4.27002 34.8127Z" fill="#FC89AB"/>
<path d="M31.5728 20.0835H18.6587V34.8127H33.0442L31.5728 20.0835Z" fill="#FA598E"/>
<path d="M77.6562 69.9585H27.4478C26.1534 69.9585 25.104 68.9091 25.104 67.6147V47.5315C25.104 46.8194 25.4276 46.1461 25.9835 45.7013L38.5356 35.6596C39.2392 35.0968 40.2028 34.9872 41.0151 35.3772C41.827 35.7675 42.3435 36.5886 42.3435 37.4897V42.655L51.0878 35.6596C51.7915 35.0966 52.7553 34.9872 53.5671 35.3772C54.379 35.7675 54.8956 36.5886 54.8956 37.4897V42.655L63.6399 35.6596C64.3437 35.0966 65.3074 34.9872 66.1193 35.3772C66.9312 35.7675 67.4478 36.5886 67.4478 37.4897V42.655L76.192 35.6596C76.8957 35.0966 77.8595 34.9872 78.6713 35.3772C79.4832 35.7675 79.9998 36.5886 79.9998 37.4897V67.6147C79.9999 68.9093 78.9506 69.9585 77.6562 69.9585Z" fill="#FFC77C"/>
<path d="M80 67.6147V37.4897C80 36.5888 79.4834 35.7675 78.6715 35.3772C77.8597 34.9872 76.8959 35.0966 76.1922 35.6596L67.4479 42.655V37.4897C67.4479 36.5888 66.9314 35.7677 66.1195 35.3772C65.3076 34.9872 64.3439 35.0966 63.6401 35.6596L54.8958 42.655V69.9586H77.6562C78.9506 69.9585 80 68.9093 80 67.6147Z" fill="#FB9745"/>
<path d="M77.6562 80.0002H25.104V67.6147H79.9999V77.6565C79.9999 78.9508 78.9506 80.0002 77.6562 80.0002Z" fill="#FB9745"/>
<path d="M80 77.6565V67.6147H54.8958V80.0002H77.6562C78.9506 80.0002 80 78.9508 80 77.6565Z" fill="#FC5E25"/>
<path d="M29.9556 4.6875H7.36182C6.06744 4.6875 5.01807 3.63812 5.01807 2.34375C5.01807 1.04937 6.06744 0 7.36182 0H29.9556C31.2499 0 32.2993 1.04937 32.2993 2.34375C32.2993 3.63812 31.2499 4.6875 29.9556 4.6875Z" fill="#EDF1F8"/>
<path d="M32.2993 2.34375C32.2993 1.04937 31.2499 0 29.9556 0H18.6587V4.6875H29.9556C31.2499 4.6875 32.2993 3.63812 32.2993 2.34375Z" fill="#E2E7F3"/>
</g>
<defs>
<clipPath id="clip0_6053_323">
<rect width="80" height="80" fill="white"/>
</clipPath>
</defs>
</svg>
