<svg width="80" height="80" viewBox="0 0 80 80" fill="none" xmlns="http://www.w3.org/2000/svg">
<g clip-path="url(#clip0_6053_278)">
<path d="M75.1461 79.9999H4.85449C3.56012 79.9999 2.51074 78.9505 2.51074 77.6562V39.8332C2.51074 39.2116 2.75762 38.6155 3.1973 38.176L38.3431 3.03023C39.2582 2.11492 40.7423 2.11492 41.6576 3.03023L76.8034 38.176C77.2429 38.6155 77.49 39.2116 77.49 39.8332V77.6562C77.4898 78.9505 76.4404 79.9999 75.1461 79.9999Z" fill="#0099FF"/>
<path d="M77.4895 77.6562V39.8333C77.4895 39.2117 77.2427 38.6156 76.803 38.1761L41.6572 3.03031C41.1997 2.5725 40.5998 2.34375 40 2.34375V80H75.1458C76.4402 80 77.4895 78.9506 77.4895 77.6562Z" fill="#0069FF"/>
<path d="M54.8762 54.4443L48.3843 60.9363C47.9448 61.3757 47.6978 61.972 47.6978 62.5935V79.9998H52.3853V63.5643L58.1907 57.7588C59.1059 56.8438 59.1062 55.3596 58.1907 54.4443C57.2754 53.529 55.7915 53.529 54.8762 54.4443Z" fill="#E2E7F3"/>
<path d="M40 45.1875C38.7056 45.1875 37.6562 46.2369 37.6562 47.5312V80H42.3438V47.5312C42.3438 46.2369 41.2944 45.1875 40 45.1875Z" fill="#EDF1F8"/>
<path d="M32.302 80.0001V62.594C32.302 61.9723 32.0551 61.3762 31.6154 60.9368L25.1235 54.4448C24.2084 53.5295 22.7243 53.5295 21.809 54.4448C20.8938 55.3598 20.8937 56.8438 21.809 57.7593L27.6145 63.5648V80.0001H32.302Z" fill="#EDF1F8"/>
<path d="M19.9168 59.9166C23.9841 59.9166 27.2813 56.6194 27.2813 52.552C27.2813 48.4847 23.9841 45.1875 19.9168 45.1875C15.8495 45.1875 12.5522 48.4847 12.5522 52.552C12.5522 56.6194 15.8495 59.9166 19.9168 59.9166Z" fill="#F7FAFC"/>
<path d="M60.0833 59.9166C64.1506 59.9166 67.4478 56.6194 67.4478 52.552C67.4478 48.4847 64.1506 45.1875 60.0833 45.1875C56.016 45.1875 52.7188 48.4847 52.7188 52.552C52.7188 56.6194 56.016 59.9166 60.0833 59.9166Z" fill="#EDF1F8"/>
<path d="M42.3438 47.5312C42.3438 46.2369 41.2944 45.1875 40 45.1875V80H42.3438V47.5312Z" fill="#E2E7F3"/>
<path d="M40.0003 49.8751C44.0676 49.8751 47.3648 46.5778 47.3648 42.5105C47.3648 38.4432 44.0676 35.146 40.0003 35.146C35.933 35.146 32.6357 38.4432 32.6357 42.5105C32.6357 46.5778 35.933 49.8751 40.0003 49.8751Z" fill="#F7FAFC"/>
<path d="M40 35.146C44.0608 35.146 47.3645 38.4499 47.3645 42.5107C47.3645 46.5715 44.0608 49.8751 40 49.8751V35.146Z" fill="#EDF1F8"/>
<path d="M75.9991 41.6573L40.0001 5.65836L4.00102 41.6573C3.08586 42.5726 1.6018 42.5726 0.686484 41.6573C-0.228828 40.742 -0.228828 39.258 0.686484 38.3427L38.3427 0.686484C39.2579 -0.228828 40.742 -0.228828 41.6573 0.686484L79.3135 38.3427C80.2288 39.258 80.2288 40.742 79.3135 41.6573C78.3982 42.5727 76.9141 42.5724 75.9991 41.6573Z" fill="#0069FF"/>
<path d="M79.3136 41.6573C80.2289 40.742 80.2289 39.2581 79.3136 38.3428L41.6573 0.686563C41.1997 0.228906 40.5998 0 40 0V5.65844L75.9991 41.6573C76.9141 42.5725 78.3981 42.5728 79.3136 41.6573Z" fill="#0039FF"/>
</g>
<defs>
<clipPath id="clip0_6053_278">
<rect width="80" height="80" fill="white"/>
</clipPath>
</defs>
</svg>
