<svg width="80" height="80" viewBox="0 0 80 80" fill="none" xmlns="http://www.w3.org/2000/svg">
<g clip-path="url(#clip0_6053_1233)">
<path d="M40.0002 17.2397C52.5504 17.2397 62.7607 27.4501 62.7607 40.0002C62.7607 41.2946 63.8101 42.344 65.1044 42.344C66.3988 42.344 67.4482 41.2946 67.4482 40.0002C67.4482 24.8654 55.1351 12.5522 40.0002 12.5522C24.8654 12.5522 12.5522 24.8654 12.5522 40.0002V55.0627C12.5522 56.3571 13.6016 57.4065 14.896 57.4065C16.1904 57.4065 17.2397 56.3571 17.2397 55.0627V40.0002C17.2397 27.4501 27.4501 17.2397 40.0002 17.2397Z" fill="#413A55"/>
<path d="M40 22.5938C30.4022 22.5938 22.5938 30.4022 22.5938 40C22.5938 41.2944 23.6431 42.3438 24.9375 42.3438C26.2319 42.3438 27.2812 41.2944 27.2812 40C27.2812 32.9869 32.9869 27.2812 40 27.2812C47.0133 27.2812 52.7187 32.9869 52.7187 40V62.5938C52.7187 63.8881 53.7681 64.9375 55.0625 64.9375C56.3569 64.9375 57.4062 63.8881 57.4062 62.5938V40C57.4062 30.4022 49.598 22.5938 40 22.5938Z" fill="#413A55"/>
<path d="M40.0003 32.6357C35.8943 32.6357 32.6357 35.9678 32.6357 40.0003V67.6148C32.6357 68.9092 33.6851 69.9586 34.9795 69.9586C36.2739 69.9586 37.3232 68.9092 37.3232 67.6148V40.0003C37.3232 38.532 38.5096 37.3232 40.0028 37.3232C41.4776 37.3232 42.6775 38.5231 42.6775 39.9978V40.0003C42.6775 41.2946 43.7268 42.3428 45.0212 42.3428C46.3156 42.3428 47.365 41.2921 47.365 39.9978C47.365 35.9382 44.0623 32.6357 40.0003 32.6357Z" fill="#413A55"/>
<path d="M24.9375 47.6982C23.6431 47.6982 22.5938 48.7476 22.5938 50.042V62.594C22.5938 63.8884 23.6431 64.9378 24.9375 64.9378C26.2319 64.9378 27.2812 63.8884 27.2812 62.594V50.042C27.2812 48.7475 26.2319 47.6982 24.9375 47.6982Z" fill="#413A55"/>
<path d="M45.021 47.6978C43.7266 47.6978 42.6772 48.7471 42.6772 50.0415V67.6145C42.6772 68.9088 43.7266 69.9582 45.021 69.9582C46.3154 69.9582 47.3647 68.9088 47.3647 67.6145V50.0415C47.3647 48.747 46.3154 47.6978 45.021 47.6978Z" fill="#292845"/>
<path d="M65.104 47.6978C63.8096 47.6978 62.7603 48.7471 62.7603 50.0415V55.0623C62.7603 56.3567 63.8096 57.406 65.104 57.406C66.3984 57.406 67.4478 56.3567 67.4478 55.0623V50.0415C67.4478 48.747 66.3984 47.6978 65.104 47.6978Z" fill="#292845"/>
<path d="M77.656 17.2395C76.3617 17.2395 75.3123 16.1902 75.3123 14.8958V4.6875H65.104C63.8096 4.6875 62.7603 3.63812 62.7603 2.34375C62.7603 1.04937 63.8096 0 65.104 0H77.656C78.9504 0 79.9998 1.04937 79.9998 2.34375V14.8958C79.9998 16.1903 78.9504 17.2395 77.656 17.2395Z" fill="#00A4CC"/>
<path d="M77.656 79.9998H65.104C63.8096 79.9998 62.7603 78.9504 62.7603 77.656C62.7603 76.3617 63.8096 75.3123 65.104 75.3123H75.3123V65.104C75.3123 63.8096 76.3617 62.7603 77.656 62.7603C78.9504 62.7603 79.9998 63.8096 79.9998 65.104V77.656C79.9998 78.9504 78.9504 79.9998 77.656 79.9998Z" fill="#00A4CC"/>
<path d="M2.34375 17.2395C1.04937 17.2395 0 16.1902 0 14.8958V2.34375C0 1.04937 1.04937 0 2.34375 0H14.8958C16.1902 0 17.2395 1.04937 17.2395 2.34375C17.2395 3.63812 16.1902 4.6875 14.8958 4.6875H4.6875V14.8958C4.6875 16.1903 3.63812 17.2395 2.34375 17.2395Z" fill="#00D7F5"/>
<path d="M14.8958 79.9998H2.34375C1.04937 79.9998 0 78.9504 0 77.656V65.104C0 63.8096 1.04937 62.7603 2.34375 62.7603C3.63812 62.7603 4.6875 63.8096 4.6875 65.104V75.3123H14.8958C16.1902 75.3123 17.2395 76.3617 17.2395 77.656C17.2395 78.9504 16.1902 79.9998 14.8958 79.9998Z" fill="#00D7F5"/>
<path d="M40 17.2397C52.5502 17.2397 62.7605 27.4501 62.7605 40.0002C62.7605 41.2946 63.8098 42.344 65.1042 42.344C66.3986 42.344 67.448 41.2946 67.448 40.0002C67.448 24.8654 55.1348 12.5522 40 12.5522V17.2397Z" fill="#292845"/>
<path d="M40 22.5938V27.2812C47.0133 27.2812 52.7187 32.9869 52.7187 40V62.5938C52.7187 63.8881 53.7681 64.9375 55.0625 64.9375C56.3569 64.9375 57.4062 63.8881 57.4062 62.5938V40C57.4062 30.4022 49.598 22.5938 40 22.5938Z" fill="#292845"/>
<path d="M40 32.6353L40.0025 37.3228C41.4773 37.3228 42.6772 38.5226 42.6772 39.9973V39.9998C42.6772 41.2942 43.7266 42.3423 45.0209 42.3423C46.3153 42.3423 47.3647 41.2917 47.3647 39.9973C47.3647 35.9378 44.062 32.6353 40 32.6353Z" fill="#292845"/>
</g>
<defs>
<clipPath id="clip0_6053_1233">
<rect width="80" height="80" fill="white"/>
</clipPath>
</defs>
</svg>
