<svg width="80" height="80" viewBox="0 0 80 80" fill="none" xmlns="http://www.w3.org/2000/svg">
<g clip-path="url(#clip0_6053_1209)">
<path d="M32.302 52.552V40C32.302 38.7056 31.2526 37.6562 29.9582 37.6562C28.6638 37.6562 27.6145 38.7056 27.6145 40V51.5812L21.809 57.3867C20.8937 58.302 20.8938 59.7861 21.809 60.7013C22.7243 61.6166 24.2082 61.6166 25.1235 60.7013L31.6154 54.2092C32.0551 53.7698 32.302 53.1738 32.302 52.552Z" fill="#0075A5"/>
<path d="M58.1907 57.3867L52.3853 51.5812V40C52.3853 38.7056 51.3359 37.6562 50.0415 37.6562C48.7471 37.6562 47.6978 38.7056 47.6978 40V52.552C47.6978 53.1738 47.9446 53.7698 48.3843 54.2092L54.8762 60.7013C55.7914 61.6166 57.2754 61.6166 58.1907 60.7013C59.1063 59.7859 59.1059 58.3017 58.1907 57.3867Z" fill="#0075A5"/>
<path d="M42.3438 67.6145V40C42.3438 38.7056 41.2944 37.6562 40 37.6562C38.7056 37.6562 37.6562 38.7056 37.6562 40V67.6145C37.6562 68.9089 38.7056 69.9583 40 69.9583C41.2944 69.9583 42.3438 68.9091 42.3438 67.6145Z" fill="#0075A5"/>
<path d="M22.7595 69.3999C26.5177 67.8421 28.3015 63.5326 26.7437 59.7744C25.186 56.0162 20.8765 54.2324 17.1183 55.7902C13.3601 57.348 11.5763 61.6575 13.1341 65.4157C14.6919 69.1739 19.0013 70.9577 22.7595 69.3999Z" fill="#00D7F5"/>
<path d="M19.9165 69.9582C23.9773 69.9582 27.281 66.6543 27.281 62.5935C27.281 58.5328 23.9773 55.229 19.9165 55.229V69.9582Z" fill="#00A4CC"/>
<path d="M42.8484 79.4365C46.6066 77.8787 48.3904 73.5693 46.8326 69.8111C45.2748 66.0529 40.9654 64.2691 37.2072 65.8268C33.449 67.3846 31.6652 71.6941 33.223 75.4523C34.7807 79.2105 39.0902 80.9943 42.8484 79.4365Z" fill="#00D7F5"/>
<path d="M40 80.0002C44.0608 80.0002 47.3645 76.6963 47.3645 72.6355C47.3645 68.5747 44.0608 65.271 40 65.271V80.0002Z" fill="#00A4CC"/>
<path d="M62.9309 69.3872C66.6891 67.8294 68.4729 63.5199 66.9151 59.7617C65.3573 56.0035 61.0479 54.2197 57.2897 55.7775C53.5315 57.3353 51.7477 61.6448 53.3055 65.403C54.8633 69.1612 59.1727 70.945 62.9309 69.3872Z" fill="#00D7F5"/>
<path d="M60.0835 69.9582C64.1443 69.9582 67.448 66.6543 67.448 62.5935C67.448 58.5328 64.1443 55.229 60.0835 55.229V69.9582Z" fill="#00A4CC"/>
<path d="M27.4478 47.3645H2.34375C1.04937 47.3645 0 46.3152 0 45.0208V42.177C0 33.9636 6.68234 27.2812 14.8958 27.2812C23.1092 27.2812 29.7916 33.9636 29.7916 42.177V45.0208C29.7916 46.3152 28.7422 47.3645 27.4478 47.3645Z" fill="#0099FF"/>
<path d="M14.896 27.2813C20.3498 27.2813 24.771 22.8601 24.771 17.4062C24.771 11.9524 20.3498 7.53125 14.896 7.53125C9.44218 7.53125 5.021 11.9524 5.021 17.4062C5.021 22.8601 9.44218 27.2813 14.896 27.2813Z" fill="#FFD2C8"/>
<path d="M14.896 7.53125C20.3412 7.53125 24.771 11.9613 24.771 17.4062C24.771 22.8512 20.341 27.2813 14.896 27.2813V7.53125Z" fill="#FFC1C0"/>
<path d="M27.448 47.3645C28.7424 47.3645 29.7918 46.3152 29.7918 45.0208V42.177C29.7918 33.9634 23.1094 27.2812 14.896 27.2812V47.3645H27.448Z" fill="#0069FF"/>
<path d="M77.6563 47.3645H52.5522C51.2579 47.3645 50.2085 46.3152 50.2085 45.0208V42.177C50.2085 33.9634 56.8908 27.2812 65.1043 27.2812C73.3177 27.2812 80.0001 33.9636 80.0001 42.1772V45.0209C80.0001 46.3152 78.9507 47.3645 77.6563 47.3645Z" fill="#FFC77C"/>
<path d="M65.104 27.2813C70.5578 27.2813 74.979 22.8601 74.979 17.4062C74.979 11.9524 70.5578 7.53125 65.104 7.53125C59.6502 7.53125 55.229 11.9524 55.229 17.4062C55.229 22.8601 59.6502 27.2813 65.104 27.2813Z" fill="#892F1E"/>
<path d="M65.104 7.53125C70.5492 7.53125 74.979 11.9613 74.979 17.4062C74.979 22.8512 70.549 27.2813 65.104 27.2813V7.53125Z" fill="#67170F"/>
<path d="M77.656 47.3645C78.9504 47.3645 79.9998 46.3152 79.9998 45.0208V42.177C79.9998 33.9634 73.3174 27.2812 65.104 27.2812V47.3645H77.656Z" fill="#FB9745"/>
<path d="M52.5518 47.3645H27.4478C26.1534 47.3645 25.104 46.3152 25.104 45.0208V34.6458C25.104 26.4322 31.7863 19.75 39.9998 19.75C48.2132 19.75 54.8956 26.4323 54.8956 34.6458V45.0208C54.8956 46.3152 53.8462 47.3645 52.5518 47.3645Z" fill="#2DD796"/>
<path d="M40 19.75C45.4538 19.75 49.875 15.3288 49.875 9.875C49.875 4.42119 45.4538 0 40 0C34.5462 0 30.125 4.42119 30.125 9.875C30.125 15.3288 34.5462 19.75 40 19.75Z" fill="#E9A8A0"/>
<path d="M40 0C45.4452 0 49.875 4.43 49.875 9.875C49.875 15.32 45.445 19.75 40 19.75V0Z" fill="#D79191"/>
<path d="M52.552 47.3645C53.8464 47.3645 54.8958 46.3152 54.8958 45.0208V34.6458C54.8958 26.4322 48.2134 19.75 40 19.75V47.3645H52.552Z" fill="#00B464"/>
</g>
<defs>
<clipPath id="clip0_6053_1209">
<rect width="80" height="80" fill="white"/>
</clipPath>
</defs>
</svg>
