<svg width="80" height="80" viewBox="0 0 80 80" fill="none" xmlns="http://www.w3.org/2000/svg">
<g clip-path="url(#clip0_6053_1175)">
<path d="M80 37.4897C80 36.1954 78.9506 35.146 77.6562 35.146H71.6256L59.1369 38.588C56.8634 39.2146 54.6178 37.5041 54.6178 35.146H2.34375C1.04937 35.146 0 36.1954 0 37.4897V44.429L3.44203 56.9177C4.06859 59.1911 2.35812 61.4368 0 61.4368V77.6565C0 78.9508 1.04937 80.0002 2.34375 80.0002H32.153L41.2984 76.8425C43.468 76.0935 45.7292 77.7051 45.7292 80.0002H77.6562C78.9506 80.0002 80 78.9508 80 77.6565V70.7174L76.558 58.2286C75.9314 55.9552 77.6419 53.7096 80 53.7096V37.4897Z" fill="#5AFAC8"/>
<path d="M41.2984 76.8425C43.4679 76.0935 45.7292 77.7051 45.7292 80.0002H77.6562C78.9506 80.0002 80 78.9508 80 77.6565V70.7174L76.5579 58.2286C75.9314 55.9552 77.6418 53.7096 80 53.7096V37.4897C80 36.1954 78.9506 35.146 77.6562 35.146H71.6256L59.1368 38.588C56.8634 39.2146 54.6178 37.5041 54.6178 35.146H22.427V80.0002H32.1529L41.2984 76.8425Z" fill="#2DD796"/>
<path d="M80 70.7174V53.7096L65.6811 45.4426L71.6256 35.146H54.6178L36.9439 65.7585L0 44.429V61.4368L32.153 80.0002H45.7292L58.3166 58.1983L80 70.7174Z" fill="#F7FAFC"/>
<path d="M45.7292 80.0002L58.3165 58.1983L80 70.7174V53.7096L65.6811 45.4426L71.6256 35.146H54.6178L36.9439 65.7585L22.427 57.3772V74.3849L32.1529 80.0002H45.7292Z" fill="#EDF1F8"/>
<path d="M67.6145 29.7915C66.3201 29.7915 65.2708 28.7421 65.2708 27.4478C65.2708 20.4346 59.5651 14.729 52.552 14.729C51.2576 14.729 50.2083 13.6796 50.2083 12.3853C50.2083 11.0909 51.2576 10.0415 52.552 10.0415C62.15 10.0415 69.9583 17.8499 69.9583 27.4478C69.9583 28.7421 68.909 29.7915 67.6145 29.7915Z" fill="#00D7F5"/>
<path d="M77.6562 29.7917C76.3618 29.7917 75.3125 28.7423 75.3125 27.448C75.3125 14.8978 65.1022 4.6875 52.552 4.6875C51.2576 4.6875 50.2083 3.63812 50.2083 2.34375C50.2083 1.04937 51.2576 0 52.552 0C67.6868 0 80 12.3131 80 27.448C80 28.7423 78.9506 29.7917 77.6562 29.7917Z" fill="#00D7F5"/>
<path d="M57.5729 29.7918C56.2786 29.7918 55.2292 28.7424 55.2292 27.448C55.2292 25.9719 54.0281 24.771 52.552 24.771C51.2576 24.771 50.2083 23.7216 50.2083 22.4272C50.2083 21.1329 51.2576 20.0835 52.552 20.0835C56.6128 20.0835 59.9167 23.3872 59.9167 27.448C59.9167 28.7424 58.8673 29.7918 57.5729 29.7918Z" fill="#00D7F5"/>
<path d="M22.427 62.427C21.7841 62.427 21.1692 62.163 20.7267 61.6964C20.5164 61.4748 15.5183 56.1828 10.4498 48.7602C3.51578 38.6053 0 29.7456 0 22.427C0 10.0608 10.0608 0 22.427 0C34.7933 0 44.8541 10.0608 44.8541 22.427C44.8541 29.7455 41.3383 38.6053 34.4042 48.7602C29.3358 56.183 24.3375 61.4748 24.1273 61.6964C23.6848 62.163 23.07 62.427 22.427 62.427Z" fill="#FA598E"/>
<path d="M34.4043 48.7602C41.3384 38.6053 44.8542 29.7456 44.8542 22.427C44.854 10.0608 34.7934 0 22.427 0V62.427C23.07 62.427 23.6848 62.163 24.1273 61.6964C24.3376 61.4748 29.3358 56.183 34.4043 48.7602Z" fill="#F81972"/>
<path d="M22.427 32.3022C27.8808 32.3022 32.302 27.8811 32.302 22.4272C32.302 16.9734 27.8808 12.5522 22.427 12.5522C16.9732 12.5522 12.552 16.9734 12.552 22.4272C12.552 27.8811 16.9732 32.3022 22.427 32.3022Z" fill="#F7FAFC"/>
<path d="M32.302 22.4272C32.302 16.9821 27.872 12.5522 22.427 12.5522V32.3022C27.8722 32.3022 32.302 27.8724 32.302 22.4272Z" fill="#EDF1F8"/>
<path d="M65.2709 27.4479C65.2709 28.7422 66.3203 29.7916 67.6146 29.7916C68.909 29.7916 69.9584 28.7422 69.9584 27.4479C69.9584 22.6489 68.0062 18.2974 64.8545 15.1455L61.5415 18.4585C63.8445 20.7614 65.2709 23.9411 65.2709 27.4479Z" fill="#00A4CC"/>
<path d="M75.3126 27.4479C75.3126 28.7423 76.362 29.7916 77.6563 29.7916C78.9507 29.7916 80.0001 28.7423 80.0001 27.4479C80.0001 19.8804 76.9218 13.0185 71.9516 8.04834L68.6387 11.3613C72.7599 15.4826 75.3126 21.1727 75.3126 27.4479Z" fill="#00A4CC"/>
<path d="M55.2293 27.4478C55.2293 28.7422 56.2787 29.7916 57.5731 29.7916C58.8675 29.7916 59.9168 28.7422 59.9168 27.4478C59.9168 25.4174 59.0909 23.5763 57.7573 22.2427L54.4443 25.5556C54.929 26.0403 55.2293 26.7097 55.2293 27.4478Z" fill="#00A4CC"/>
</g>
<defs>
<clipPath id="clip0_6053_1175">
<rect width="80" height="80" fill="white"/>
</clipPath>
</defs>
</svg>
