<svg width="40" height="40" viewBox="0 0 40 40" fill="none" xmlns="http://www.w3.org/2000/svg">
<g clip-path="url(#clip0_6260_71)">
<path d="M37.947 32.833C37.7309 32.5922 37.3604 32.572 37.1196 32.7882C36.8787 33.0044 36.8587 33.3748 37.0748 33.6156L38.788 35.5248C38.8428 35.5861 38.8409 35.6791 38.7834 35.7365L37.0677 37.4521C37.01 37.5096 36.9177 37.5122 36.857 37.4576L28.4895 29.9489C29.0277 29.5829 29.5397 29.1623 30.0165 28.6855C30.4931 28.2088 30.9137 27.697 31.2795 27.159L35.2546 31.5875C35.3703 31.7164 35.5302 31.782 35.6909 31.782C35.8302 31.782 35.9701 31.7326 36.082 31.6322C36.3229 31.416 36.3429 31.0455 36.1266 30.8048L31.9089 26.1059C33.7661 22.5345 33.4386 18.1135 30.9262 14.8419L32.5475 12.5062L34.9616 19.0109C34.7468 19.397 34.624 19.841 34.624 20.3134C34.624 21.7955 35.8298 23.0013 37.312 23.0013C38.7941 23.0013 40 21.7956 40 20.3134C40 19.1581 39.2673 18.1709 38.2422 17.7916L35.3716 10.057C35.5866 9.67078 35.7096 9.22656 35.7096 8.75398C35.7096 7.27179 34.5037 6.06601 33.0216 6.06601C31.5395 6.06601 30.3337 7.27187 30.3337 8.75398C30.3337 8.98835 30.364 9.21562 30.4206 9.4325L28.3351 12.4377C26.1696 11.0209 23.5928 10.4848 21.1158 10.829L17.6835 4.90656C17.7811 4.62851 17.8348 4.32992 17.8348 4.0189C17.8348 2.53671 16.629 1.33093 15.1469 1.33093C13.6648 1.33093 12.4589 2.53679 12.4589 4.0189C12.4589 4.46382 12.5682 4.88351 12.7604 5.25351L11.9937 7.14984C11.8723 7.44984 12.0173 7.7914 12.3173 7.91273C12.3892 7.94187 12.4636 7.95562 12.5367 7.95562C12.7684 7.95562 12.9879 7.81726 13.0802 7.58921L13.6277 6.23492C13.9433 6.45187 14.3072 6.60304 14.6998 6.66906L9.65594 19.1463C9.34055 18.9295 8.97688 18.7785 8.58453 18.7124L12.0591 10.1173C12.1804 9.81734 12.0355 9.47578 11.7355 9.35453C11.4355 9.2332 11.0939 9.37812 10.9727 9.67812L7.75781 17.6309L5.27461 13.8939C5.34031 13.6615 5.37633 13.4167 5.37633 13.1635C5.37633 11.6814 4.17047 10.4755 2.68836 10.4755C1.20625 10.4755 0 11.6814 0 13.1635C0 14.5344 1.0318 15.668 2.35938 15.8307L5.55039 20.632C5.48469 20.8644 5.44867 21.1092 5.44867 21.3624C5.44867 22.8445 6.65453 24.0504 8.13664 24.0504C9.61875 24.0504 10.8246 22.8445 10.8246 21.3624C10.8246 20.9173 10.7152 20.4977 10.523 20.1276L15.428 7.99367L17.703 11.9181C16.7784 12.4005 15.9109 13.0291 15.1353 13.8046C11.0326 17.9073 11.0326 24.5828 15.1353 28.6855C17.1866 30.7369 19.8812 31.7626 22.5758 31.7626C24.2471 31.7626 25.9183 31.3676 27.4362 30.5784L36.074 38.3298C36.3263 38.5565 36.643 38.669 36.9591 38.669C37.299 38.669 37.6382 38.5388 37.8962 38.2808L39.612 36.5652C40.1084 36.0686 40.1305 35.2687 39.661 34.7431L37.947 32.833ZM34.4762 11.0126L36.9404 17.6517C36.5455 17.7066 36.1779 17.8476 35.857 18.0552L33.3928 11.4158C33.7877 11.3609 34.1552 11.22 34.4762 11.0126ZM38.8281 20.3134C38.8281 21.1494 38.148 21.8295 37.312 21.8295C36.4761 21.8295 35.7959 21.1494 35.7959 20.3134C35.7959 19.4775 36.4761 18.7973 37.312 18.7973C38.148 18.7973 38.8281 19.4775 38.8281 20.3134ZM33.0216 7.23789C33.8576 7.23789 34.5377 7.91804 34.5377 8.75398C34.5377 9.58992 33.8576 10.2701 33.0216 10.2701C32.1857 10.2701 31.5055 9.58992 31.5055 8.75398C31.5055 7.91804 32.1857 7.23789 33.0216 7.23789ZM31.0509 10.5795C31.3139 10.8632 31.637 11.0901 32.0001 11.2398L30.1352 13.9266C30.0957 13.8859 30.0566 13.8449 30.0163 13.8047C29.7788 13.5671 29.5321 13.3439 29.2783 13.1337L31.0509 10.5795ZM13.6306 4.01898C13.6306 3.18296 14.3108 2.50289 15.1467 2.50289C15.9827 2.50289 16.6628 3.18304 16.6628 4.01898C16.6628 4.85492 15.9827 5.53507 15.1467 5.53507C14.3108 5.53507 13.6306 4.855 13.6306 4.01898ZM1.17188 13.1635C1.17188 12.3276 1.85203 11.6474 2.68797 11.6474C3.52391 11.6474 4.20406 12.3276 4.20406 13.1635C4.20406 13.3701 4.16227 13.5669 4.08711 13.7466C4.08539 13.7505 4.08367 13.7545 4.08211 13.7585C3.85031 14.2995 3.31281 14.6796 2.68797 14.6796C1.85203 14.6796 1.17188 13.9995 1.17188 13.1635ZM3.65914 15.6692C4.02539 15.5268 4.35281 15.3064 4.62117 15.0284L7.16523 18.8569C6.79914 18.9994 6.47187 19.2197 6.20359 19.4977L3.65914 15.6692ZM8.13672 22.8785C7.3007 22.8785 6.62063 22.1984 6.62063 21.3624C6.62063 20.5264 7.30078 19.8463 8.13672 19.8463C8.97266 19.8463 9.65281 20.5265 9.65281 21.3624C9.65289 22.1984 8.97273 22.8785 8.13672 22.8785ZM15.963 6.57984C16.3384 6.45992 16.6783 6.25968 16.9621 5.99921L19.9015 11.0711C19.5214 11.1704 19.1459 11.2911 18.7767 11.4334L15.963 6.57984ZM15.9641 27.8569C12.3183 24.2111 12.3183 18.279 15.9641 14.6332C17.787 12.8103 20.1814 11.8989 22.5759 11.8989C24.9703 11.8989 27.3648 12.8104 29.1877 14.6332C32.8334 18.279 32.8334 24.2111 29.1877 27.8569C25.542 31.5026 19.6098 31.5026 15.9641 27.8569Z" fill="white"/>
<path d="M28.2434 15.5776C26.7295 14.0637 24.7167 13.23 22.5759 13.23C20.4349 13.23 18.4222 14.0637 16.9084 15.5776C15.3945 17.0914 14.5608 19.1042 14.5608 21.2451C14.5608 23.3859 15.3945 25.3987 16.9084 26.9126C18.4222 28.4265 20.4349 29.2602 22.5759 29.2602C24.7167 29.2602 26.7295 28.4265 28.2434 26.9126C29.7573 25.3988 30.591 23.386 30.591 21.2451C30.591 19.1041 29.7573 17.0914 28.2434 15.5776ZM22.9003 18.823L25.2469 14.9419C25.8385 15.1926 26.3949 15.5272 26.9004 15.9408L24.5527 19.8245C24.1045 19.3584 23.5374 19.0082 22.9003 18.823ZM24.1002 14.5733L21.9195 18.1803L20.0523 14.882C20.845 14.5679 21.6974 14.4019 22.5758 14.4019C23.0954 14.4019 23.6056 14.4613 24.1002 14.5733ZM19.003 15.4072L20.9202 18.7937C20.2766 18.9606 19.7004 19.2954 19.2399 19.7478L17.4935 16.6626C17.5723 16.5754 17.6533 16.4898 17.737 16.4062C18.1234 16.0197 18.5488 15.6863 19.003 15.4072ZM27.4147 26.084C26.1222 27.3765 24.4037 28.0883 22.5758 28.0883C20.7479 28.0883 19.0294 27.3765 17.7369 26.084C16.4444 24.7915 15.7325 23.0729 15.7325 21.2451C15.7325 19.9704 16.0796 18.7494 16.7275 17.6885L18.4872 20.7971C18.2516 21.2865 18.1194 21.8348 18.1194 22.4133C18.1194 24.4751 19.7967 26.1524 21.8584 26.1524C22.5342 26.1524 23.1977 25.9695 23.777 25.6234C24.0548 25.4574 24.1454 25.0977 23.9795 24.8199C23.8135 24.5422 23.4538 24.4515 23.1759 24.6174C22.7783 24.855 22.3227 24.9805 21.8585 24.9805C20.443 24.9805 19.2913 23.8289 19.2913 22.4133C19.2913 20.9978 20.443 19.8462 21.8585 19.8462C23.2741 19.8462 24.4257 20.9978 24.4257 22.4133C24.4257 22.5772 24.4102 22.7407 24.3793 22.8996C24.3177 23.2172 24.5254 23.5247 24.8431 23.5863C25.1617 23.6479 25.4684 23.4401 25.5299 23.1225C25.5748 22.8904 25.5976 22.6518 25.5976 22.4133C25.5976 21.8731 25.4815 21.3597 25.2744 20.8955L27.7611 16.7819C28.8327 18.023 29.4191 19.5886 29.4191 21.2451C29.4191 23.073 28.7073 24.7915 27.4147 26.084Z" fill="white"/>
</g>
<defs>
<clipPath id="clip0_6260_71">
<rect width="40" height="40" fill="white"/>
</clipPath>
</defs>
</svg>
