<svg width="40" height="40" viewBox="0 0 40 40" fill="none" xmlns="http://www.w3.org/2000/svg">
<g clip-path="url(#clip0_6260_76)">
<path d="M40 20.1044C40 18.8719 39.1012 17.846 37.9247 17.6461C37.4984 14.5041 36.2556 11.5448 34.3068 9.03208C34.5886 8.62809 34.7546 8.13754 34.7546 7.60871C34.7546 6.23339 33.6357 5.11448 32.2603 5.11448C31.7149 5.11448 31.2101 5.29096 30.7991 5.58925C28.3464 3.76134 25.4817 2.59032 22.4583 2.17969C22.2583 1.0032 21.2325 0.10437 20 0.10437C18.7675 0.10437 17.7415 1.0032 17.5417 2.17969C14.5182 2.59024 11.6535 3.76127 9.20083 5.58925C8.78982 5.29104 8.28505 5.11448 7.73958 5.11448C6.36426 5.11448 5.24534 6.23339 5.24534 7.60871C5.24534 8.13762 5.41136 8.62825 5.69324 9.03231C5.21823 9.64536 4.78237 10.2872 4.39526 10.9469C4.23151 11.226 4.32503 11.585 4.60409 11.7488C4.69729 11.8035 4.79932 11.8294 4.90011 11.8294C5.10112 11.8294 5.29691 11.7259 5.40605 11.54C5.7548 10.9456 6.14621 10.3665 6.57191 9.81177C6.92051 9.99732 7.31786 10.1029 7.73958 10.1029C8.28481 10.1029 8.78935 9.92654 9.20029 9.62857C9.51982 9.86669 9.84756 10.0948 10.1812 10.311C10.0128 10.6466 9.9174 11.025 9.9174 11.4253C9.9174 12.3774 10.4539 13.2063 11.2402 13.6265C10.9855 14.9261 10.8091 16.2788 10.7141 17.6608C9.76857 17.8544 9.01693 18.5849 8.79122 19.5185H4.91823C4.71292 18.6693 4.07245 17.9883 3.24658 17.7264C3.4301 16.4188 3.76713 15.1369 4.25127 13.9082C4.36995 13.6071 4.22206 13.2669 3.92096 13.1483C3.62002 13.0296 3.27963 13.1775 3.16103 13.4786C2.63283 14.8189 2.26869 16.2186 2.07509 17.6461C0.898755 17.8462 0 18.8721 0 20.1044C0 21.3369 0.898833 22.3629 2.07532 22.5627C2.50158 25.7048 3.7444 28.664 5.69316 31.1767C5.41136 31.5807 5.24542 32.0713 5.24542 32.6001C5.24542 33.9754 6.36433 35.0943 7.73965 35.0943C8.28513 35.0943 8.7899 34.9178 9.20091 34.6196C11.6535 36.4475 14.5181 37.6184 17.5414 38.029C17.5722 38.2099 17.6229 38.3901 17.6961 38.5666C17.7275 38.6423 17.7629 38.7165 17.8013 38.7876C17.9549 39.0723 18.3106 39.1785 18.5953 39.0248C18.88 38.871 18.9862 38.5155 18.8325 38.2308C18.8128 38.1944 18.7946 38.1561 18.7784 38.1171C18.4989 37.4439 18.8196 36.6687 19.4932 36.3891C20.1667 36.1097 20.9421 36.4297 21.2216 37.1029C21.4848 37.7369 21.2129 38.4768 20.6024 38.7872C20.3139 38.9338 20.1989 39.2866 20.3456 39.575C20.449 39.7784 20.6548 39.8955 20.8683 39.8955C20.9577 39.8955 21.0483 39.8751 21.1334 39.8318C21.8542 39.4653 22.3253 38.7822 22.4558 38.0294C25.4802 37.6192 28.3458 36.448 30.7992 34.6196C31.2103 34.9178 31.715 35.0943 32.2605 35.0943C33.6358 35.0943 34.7547 33.9753 34.7547 32.6001C34.7547 32.0713 34.5888 31.5807 34.307 31.1767C36.2558 28.664 37.4986 25.7048 37.9248 22.5627C39.1012 22.3629 40 21.3369 40 20.1044ZM32.2604 30.106C31.7153 30.106 31.211 30.2822 30.8001 30.58C30.5409 30.3867 30.2764 30.2005 30.0087 30.0224C30.0451 29.8531 30.0647 29.6777 30.0647 29.4977C30.0647 28.4984 29.4737 27.6349 28.6231 27.2373C28.952 25.7405 29.1739 24.1678 29.2852 22.5482C30.2311 22.3548 30.9832 21.6242 31.2089 20.6904H31.6587C31.9823 20.6904 32.2446 20.4281 32.2446 20.1045C32.2446 19.7809 31.9823 19.5185 31.6587 19.5185H31.2089C30.9832 18.5849 30.2313 17.8544 29.2857 17.6609C29.19 16.2742 29.0132 14.9188 28.7582 13.6182C29.5357 13.1953 30.0646 12.371 30.0646 11.4255C30.0646 11.0285 29.971 10.6532 29.8053 10.3197C30.1442 10.1009 30.4763 9.86997 30.7999 9.6288C31.2107 9.92669 31.7152 10.103 32.2603 10.103C32.6822 10.103 33.0797 9.9974 33.4284 9.81169C35.2073 12.1273 36.3483 14.8436 36.7529 17.7267C35.9273 17.9886 35.287 18.6696 35.0817 19.5185H34.3929C34.0693 19.5185 33.807 19.7809 33.807 20.1045C33.807 20.4281 34.0693 20.6904 34.3929 20.6904H35.0817C35.2869 21.5394 35.9273 22.2204 36.7529 22.4823C36.3483 25.3654 35.2074 28.0817 33.4284 30.3973C33.0798 30.2116 32.6822 30.106 32.2604 30.106ZM22.4582 27.1698C22.2908 26.1862 21.5461 25.3974 20.5859 25.1653V22.5284C21.4912 22.3095 22.2051 21.5957 22.424 20.6903H26.3608C26.5727 21.5671 27.2489 22.2641 28.1136 22.5061C28.0049 24.0621 27.7903 25.571 27.4738 27.0059C26.7425 27.0339 26.0909 27.3778 25.6523 27.9053C24.6161 27.5647 23.5455 27.3179 22.4582 27.1698ZM20 28.9116C19.2709 28.9116 18.6778 28.3184 18.6778 27.5893C18.6778 26.8601 19.271 26.267 20 26.267C20.7291 26.267 21.3223 26.8602 21.3223 27.5893C21.3223 28.3184 20.7291 28.9116 20 28.9116ZM17.5418 27.1697C16.4502 27.318 15.3749 27.5665 14.3337 27.9101C13.8986 27.3843 13.2524 27.0395 12.5262 27.0065C12.2097 25.5705 11.9951 24.0613 11.8863 22.5062C12.7511 22.2643 13.4272 21.5672 13.6391 20.6905H17.576C17.7949 21.5958 18.5087 22.3097 19.414 22.5286V25.1655C18.4539 25.3974 17.7092 26.1862 17.5418 27.1697ZM9.96365 31.4734C10.1388 31.344 10.3171 31.218 10.4978 31.095C10.9557 31.6427 11.6435 31.9919 12.4116 31.9919C12.5743 31.9919 12.7334 31.9757 12.8875 31.9458C13.7647 33.9156 14.8571 35.4918 16.0752 36.5658C13.8747 36.0431 11.7976 35.0804 9.96373 33.7268C10.136 33.3881 10.2338 33.0054 10.2338 32.6001C10.2338 32.1948 10.136 31.8121 9.96365 31.4734ZM12.4116 28.1754C13.1407 28.1754 13.7338 28.7686 13.7338 29.4977C13.7338 30.2269 13.1406 30.82 12.4116 30.82C11.6825 30.82 11.0893 30.2268 11.0893 29.4977C11.0893 28.7685 11.6825 28.1754 12.4116 28.1754ZM17.6221 11.8669C16.6987 11.7369 15.7863 11.5306 14.8989 11.2505C14.8416 10.4273 14.3835 9.71302 13.7184 9.30216C14.7966 6.65191 16.2288 4.73635 17.8203 3.80908C18.1548 4.40908 18.7297 4.85721 19.414 5.0226V10.1955C18.565 10.4008 17.8841 11.0412 17.6221 11.8669ZM10.9467 9.40857C10.6124 9.19614 10.2833 8.97231 9.96342 8.73614C10.1359 8.39731 10.2339 8.01434 10.2339 7.60879C10.2339 7.20347 10.1361 6.82082 9.96381 6.48214C11.7962 5.12963 13.8716 4.16736 16.0701 3.64431C14.7163 4.83698 13.5245 6.64722 12.6015 8.93919C12.5387 8.93442 12.4755 8.93122 12.4116 8.93122C11.8645 8.93122 11.3583 9.10872 10.9467 9.40857ZM30.0367 8.7363C29.7142 8.97442 29.3817 9.20028 29.0436 9.41435C28.6305 9.11091 28.1212 8.93114 27.5705 8.93114C27.5125 8.93114 27.4552 8.93388 27.3981 8.93778C26.4747 6.64636 25.2829 4.83659 23.9294 3.64408C26.1281 4.16705 28.2037 5.1294 30.0363 6.48206C29.864 6.82074 29.7662 7.2034 29.7662 7.60871C29.7662 8.01442 29.8642 8.39739 30.0367 8.7363ZM30.1071 20.1048C30.1069 20.8337 29.5138 21.4267 28.7848 21.4267C28.0556 21.4267 27.4625 20.8335 27.4625 20.1044C27.4625 19.3753 28.0557 18.7821 28.7848 18.7821C29.5138 18.7821 30.1069 19.3751 30.1071 20.104V20.1044C30.1071 20.1044 30.1071 20.1047 30.1071 20.1048ZM26.3608 19.5185H22.424C22.2051 18.6131 21.4912 17.8993 20.5859 17.6804V15.0435C21.5459 14.8114 22.2905 14.0228 22.458 13.0396C23.4158 12.9093 24.362 12.701 25.2837 12.4198C25.6686 13.3015 26.5485 13.9195 27.5704 13.9195C27.5881 13.9195 27.6056 13.9186 27.6233 13.9182C27.8588 15.136 28.0231 16.4046 28.1141 17.7025C27.2492 17.9445 26.5728 18.6416 26.3608 19.5185ZM27.5705 12.7476C26.8413 12.7476 26.2482 12.1544 26.2482 11.4254C26.2482 10.6963 26.8414 10.1031 27.5705 10.1031C28.2995 10.1031 28.8927 10.6963 28.8927 11.4254C28.8927 12.1544 28.2995 12.7476 27.5705 12.7476ZM22.1797 3.80924C23.7687 4.73549 25.1995 6.64761 26.2779 9.29294C25.6034 9.70325 25.1387 10.4246 25.0826 11.2561C24.2018 11.5333 23.2956 11.7377 22.3779 11.8669C22.1159 11.0412 21.435 10.4008 20.5859 10.1955V5.02268C21.2702 4.85721 21.845 4.40924 22.1797 3.80924ZM20 11.2972C20.7292 11.2972 21.3223 11.8905 21.3223 12.6196C21.3223 13.3487 20.7291 13.9419 20 13.9419C19.271 13.9419 18.6778 13.3487 18.6778 12.6196C18.6777 11.8905 19.2709 11.2972 20 11.2972ZM20 18.7821C20.7292 18.7821 21.3223 19.3753 21.3223 20.1044C21.3223 20.8335 20.7291 21.4267 20 21.4267C19.271 21.4267 18.6778 20.8335 18.6778 20.1044C18.6778 19.3753 19.2709 18.7821 20 18.7821ZM26.2482 29.4977C26.2482 28.7685 26.8414 28.1753 27.5705 28.1753C28.2995 28.1753 28.8927 28.7685 28.8927 29.4977C28.8927 30.2268 28.2995 30.8199 27.5705 30.8199C26.8414 30.8199 26.2482 30.2268 26.2482 29.4977ZM27.5705 31.9919C28.3421 31.9919 29.033 31.6396 29.4908 31.0874C29.6747 31.2124 29.8567 31.341 30.0363 31.4735C29.864 31.8121 29.7662 32.1948 29.7662 32.6001C29.7662 33.0054 29.864 33.3881 30.0363 33.7268C28.2025 35.0803 26.1255 36.043 23.9251 36.5658C25.1427 35.4922 26.2347 33.9171 27.1116 31.9489C27.2605 31.9767 27.4137 31.9919 27.5705 31.9919ZM38.8281 20.1044C38.8281 20.8336 38.2349 21.4267 37.5058 21.4267C36.7773 21.4267 36.1846 20.8345 36.1836 20.1063C36.1836 20.1057 36.1836 20.105 36.1836 20.1044C36.1836 20.1038 36.1836 20.1032 36.1836 20.1025C36.1846 19.3743 36.7773 18.7821 37.5058 18.7821C38.2349 18.7821 38.8281 19.3753 38.8281 20.1044ZM32.2604 6.28644C32.9896 6.28644 33.5828 6.87964 33.5828 7.60879C33.5828 8.33793 32.9896 8.93106 32.2604 8.93106C31.5313 8.93106 30.9382 8.33786 30.9382 7.60879C30.9381 6.87964 31.5313 6.28644 32.2604 6.28644ZM20 1.27633C20.7292 1.27633 21.3223 1.86954 21.3223 2.59868C21.3223 3.32783 20.7291 3.92095 20 3.92095C19.271 3.92095 18.6778 3.32775 18.6778 2.59868C18.6777 1.86954 19.2709 1.27633 20 1.27633ZM7.73958 8.93106C7.01043 8.93106 6.41722 8.33786 6.41722 7.60879C6.41722 6.87964 7.01043 6.28644 7.73958 6.28644C8.46872 6.28644 9.06185 6.87964 9.06185 7.60879C9.06193 8.33786 8.46872 8.93106 7.73958 8.93106ZM12.4116 10.1031C13.1407 10.1031 13.7338 10.6963 13.7338 11.4254C13.7338 12.1544 13.1406 12.7476 12.4116 12.7476C11.6825 12.7476 11.0893 12.1544 11.0893 11.4254C11.0893 10.6963 11.6825 10.1031 12.4116 10.1031ZM12.4116 13.9195C13.4352 13.9195 14.3165 13.2994 14.7004 12.4152C15.6277 12.6987 16.5793 12.9085 17.5419 13.0395C17.7094 14.0228 18.4541 14.8114 19.4141 15.0435V17.6804C18.5088 17.8993 17.7949 18.6131 17.576 19.5185H13.6392C13.4272 18.6415 12.7508 17.9443 11.8857 17.7025C11.9763 16.4063 12.1407 15.1378 12.3766 13.9187C12.3883 13.9188 12.3998 13.9195 12.4116 13.9195ZM11.2152 18.7821C11.9444 18.7821 12.5375 19.3753 12.5375 20.1044C12.5375 20.8335 11.9443 21.4267 11.2152 21.4267C10.4861 21.4267 9.89287 20.8335 9.89287 20.1044C9.89287 19.3753 10.4861 18.7821 11.2152 18.7821ZM4.91823 20.6903H8.79115C9.01693 21.6241 9.76896 22.3547 10.7148 22.5481C10.8259 24.164 11.0473 25.7341 11.3755 27.2298C10.5161 27.624 9.9174 28.492 9.9174 29.4977C9.9174 29.6813 9.93795 29.8601 9.97576 30.0325C9.71209 30.2084 9.45287 30.3913 9.19982 30.5799C8.78904 30.2821 8.28466 30.106 7.73958 30.106C7.3177 30.106 6.9202 30.2116 6.57152 30.3973C4.79261 28.0816 3.65166 25.3654 3.24697 22.4823C4.0726 22.2203 4.71292 21.5394 4.91823 20.6903ZM1.17188 20.1044C1.17188 19.3753 1.76509 18.7821 2.49423 18.7821C3.22338 18.7821 3.81651 19.3753 3.81651 20.1044C3.81651 20.8335 3.2233 21.4267 2.49423 21.4267C1.76509 21.4268 1.17188 20.8336 1.17188 20.1044ZM7.73958 33.9225C7.01043 33.9225 6.41722 33.3293 6.41722 32.6002C6.41722 31.8711 7.01043 31.2779 7.73958 31.2779C8.46872 31.2779 9.06185 31.8711 9.06185 32.6002C9.06185 33.3293 8.46872 33.9225 7.73958 33.9225ZM19.0438 35.3068C18.504 35.5309 18.085 35.924 17.8214 36.3993C16.3503 35.5391 15.0002 33.8175 13.9523 31.4569C14.5323 30.9998 14.9057 30.2918 14.9057 29.4977C14.9057 29.3183 14.8863 29.1434 14.8501 28.9746C15.7519 28.6864 16.6801 28.4741 17.622 28.3416C17.8839 29.1675 18.5648 29.8081 19.414 30.0134V35.1861C19.2896 35.2162 19.1658 35.2562 19.0438 35.3068ZM20.586 35.1872V30.0133C21.4351 29.808 22.1161 29.1675 22.3779 28.3417C23.3145 28.4737 24.2371 28.6842 25.1332 28.9692C25.0963 29.1396 25.0763 29.3163 25.0763 29.4976C25.0763 30.2979 25.4556 31.0109 26.0434 31.4675C24.9966 33.8218 23.6487 35.5392 22.18 36.3983C21.8338 35.7746 21.2465 35.3477 20.586 35.1872ZM32.2604 33.9225C31.5313 33.9225 30.9382 33.3293 30.9382 32.6002C30.9382 31.8711 31.5314 31.2779 32.2604 31.2779C32.9896 31.2779 33.5828 31.8711 33.5828 32.6002C33.5828 33.3293 32.9896 33.9225 32.2604 33.9225Z" fill="white"/>
</g>
<defs>
<clipPath id="clip0_6260_76">
<rect width="40" height="40" fill="white"/>
</clipPath>
</defs>
</svg>
