<svg width="40" height="40" viewBox="0 0 40 40" fill="none" xmlns="http://www.w3.org/2000/svg">
<g clip-path="url(#clip0_6260_80)">
<path d="M20.0006 24.2711C22.3549 24.2711 24.2701 22.3551 24.2701 20C24.2701 19.452 24.1676 18.9187 23.9655 18.4147C23.845 18.1143 23.5037 17.9685 23.2036 18.089C22.9032 18.2094 22.7574 18.5505 22.8779 18.8509C23.0241 19.2155 23.0982 19.6022 23.0982 20C23.0982 21.7089 21.7086 23.0992 20.0006 23.0992C18.2917 23.0992 16.9014 21.7089 16.9014 20C16.9014 18.2915 18.2917 16.9016 20.0006 16.9016C20.4537 16.9016 20.8897 16.9971 21.2965 17.1855C21.59 17.3215 21.9385 17.1938 22.0744 16.9002C22.2105 16.6066 22.0827 16.2583 21.7891 16.1223C21.2269 15.8618 20.6252 15.7297 20.0006 15.7297C17.6454 15.7297 15.7295 17.6454 15.7295 20C15.7295 22.3551 17.6455 24.2711 20.0006 24.2711Z" fill="white"/>
<path d="M10.6919 17.4983L12.4363 18.804C12.3744 19.1984 12.3431 19.5994 12.3431 20.0003C12.3431 20.4013 12.3744 20.802 12.4362 21.1959L10.6916 22.5017C10.0918 22.9513 9.92201 23.7795 10.2968 24.4284L11.3137 26.1893C11.6886 26.8382 12.4907 27.1052 13.18 26.8102L15.1829 25.9525C15.8092 26.4607 16.5033 26.8621 17.254 27.15L17.5124 29.3131C17.6022 30.0566 18.2347 30.6173 18.9835 30.6173H21.0165C21.7665 30.6173 22.3989 30.0561 22.4876 29.3123L22.7465 27.15C23.4969 26.862 24.1908 26.4607 24.817 25.9525L26.8203 26.8101C27.5094 27.1054 28.3118 26.8387 28.687 26.1891L29.7029 24.4284C30.0778 23.7796 29.908 22.9513 29.3082 22.5018C29.3081 22.5017 29.308 22.5017 29.3079 22.5016L27.5644 21.1961C27.6263 20.8022 27.6576 20.4016 27.6576 20.0004C27.6576 19.5994 27.6263 19.1984 27.5644 18.804L29.3075 17.4987C29.9077 17.0502 30.0778 16.222 29.7029 15.5716L28.6871 13.8119C28.3125 13.162 27.5101 12.8949 26.8206 13.1906L24.817 14.0483C24.1908 13.5401 23.497 13.1388 22.7465 12.8508L22.4876 10.6888C22.3989 9.94414 21.7665 9.38266 21.0165 9.38266H18.9835C18.2347 9.38266 17.6023 9.94375 17.5122 10.6886L17.254 12.8508C16.5033 13.1387 15.8092 13.54 15.1829 14.0483L13.1799 13.1906C12.4902 12.8956 11.6879 13.1625 11.3138 13.8114L10.2965 15.572C9.92193 16.2219 10.0921 17.0502 10.6919 17.4983ZM11.3116 16.1576L12.3289 14.397C12.4069 14.2616 12.5747 14.2061 12.7187 14.2677L15.0555 15.2684C15.2647 15.358 15.5072 15.3182 15.6769 15.1663C16.3492 14.5646 17.1226 14.1175 17.9755 13.8373C18.1919 13.7663 18.3475 13.5763 18.3744 13.3502L18.6756 10.8282C18.6945 10.672 18.8269 10.5543 18.9833 10.5543H21.0163C21.1731 10.5543 21.3053 10.6716 21.3239 10.8275L21.626 13.3503C21.6531 13.5763 21.8086 13.7663 22.0248 13.8373C22.8774 14.1175 23.6506 14.5647 24.3227 15.1663C24.4925 15.3181 24.7347 15.3579 24.944 15.2683L27.282 14.2674C27.4262 14.2056 27.5936 14.2613 27.6719 14.3971L28.6877 16.1568C28.7662 16.293 28.731 16.4661 28.6054 16.5599L26.5715 18.0829C26.3894 18.2193 26.3027 18.4488 26.3491 18.6715C26.4396 19.1057 26.4854 19.5527 26.4854 20.0001C26.4854 20.4477 26.4396 20.8945 26.3491 21.3277C26.3026 21.5506 26.3894 21.7801 26.5715 21.9165L28.6054 23.4394C28.7307 23.5335 28.7662 23.7065 28.6879 23.8423L27.6719 25.603C27.5935 25.7388 27.4258 25.7945 27.2816 25.7327L24.944 24.732C24.7349 24.6424 24.4925 24.6821 24.3227 24.834C23.6505 25.4356 22.8774 25.8827 22.0248 26.163C21.8085 26.2341 21.653 26.4239 21.626 26.6499L21.3239 29.173C21.3054 29.3281 21.1732 29.445 21.0163 29.445H18.9833C18.8267 29.445 18.6944 29.3277 18.6757 29.1728L18.3744 26.65C18.3473 26.4238 18.1917 26.2339 17.9754 26.1628C17.1225 25.8827 16.3492 25.4356 15.6769 24.8338C15.5673 24.7359 15.4276 24.6845 15.286 24.6845C15.2081 24.6845 15.1297 24.7 15.0554 24.7318L12.7187 25.7324C12.5747 25.7941 12.4069 25.7384 12.3286 25.6027L11.3115 23.8418C11.2333 23.7063 11.2689 23.5331 11.3941 23.4392L13.4287 21.9163C13.6109 21.7799 13.6976 21.5504 13.6512 21.3276C13.5608 20.8941 13.515 20.4474 13.515 19.9998C13.515 19.5525 13.5608 19.1055 13.6513 18.6712C13.6977 18.4484 13.6109 18.2189 13.4287 18.0826L11.3937 16.5593C11.2687 16.4663 11.2335 16.2932 11.3116 16.1576Z" fill="white"/>
<path d="M37.9688 8.11875C39.0888 8.11875 40 7.2075 40 6.0875V2.03125C40 0.91125 39.0888 0 37.9688 0H37.8641C37.5404 0 37.2781 0.262344 37.2781 0.585938C37.2781 0.909531 37.5404 1.17188 37.8641 1.17188H37.9688C38.4426 1.17188 38.8281 1.55742 38.8281 2.03125V6.0875C38.8281 6.56133 38.4426 6.94687 37.9688 6.94687H33.9125C33.4387 6.94687 33.0531 6.56133 33.0531 6.0875V2.03125C33.0531 1.55742 33.4387 1.17188 33.9125 1.17188H35.1297C35.4534 1.17188 35.7156 0.909531 35.7156 0.585938C35.7156 0.262344 35.4534 0 35.1297 0H33.9125C32.7924 0 31.8812 0.91125 31.8812 2.03125V2.30156H8.11891V2.03148C8.11891 0.911328 7.20758 0 6.08742 0H2.03148C0.911406 0 0 0.911328 0 2.03148V6.08734C0 7.2075 0.911328 8.11883 2.03148 8.11883H2.30156V31.881H2.03148C0.911406 31.8811 0 32.7924 0 33.9127V37.9685C0 39.0887 0.911406 40 2.03148 40H6.08742C7.20758 40 8.11891 39.0887 8.11891 37.9685V37.6984H31.8809V37.9685C31.8809 39.0887 32.7923 40 33.9124 40H37.9684C39.0885 40 39.9998 39.0887 39.9998 37.9685V33.9127C39.9998 32.7925 39.0885 31.8812 37.9684 31.8812H37.6983V8.11875H37.9688ZM33.9125 8.11875H34.1827V31.8811H33.9125C33.5652 31.8811 33.238 31.9688 32.9518 32.1231L29.8404 29.0123C32.0182 26.6356 33.3493 23.4706 33.3493 20.0003C33.3493 16.5299 32.0182 13.3649 29.8403 10.9883L32.9518 7.87672C33.238 8.03102 33.5652 8.11875 33.9125 8.11875ZM31.881 34.1827H8.11891V33.9126C8.11891 33.5652 8.03109 33.238 7.8768 32.9517L10.9885 29.8406C13.3653 32.0193 16.5305 33.351 20.0013 33.351C23.4711 33.351 26.6355 32.0195 29.0118 29.8411L32.1231 32.9518C31.9688 33.238 31.881 33.5652 31.881 33.9127V34.1827ZM8.11891 5.81719H31.8812V6.0875C31.8812 6.43477 31.969 6.7618 32.1232 7.04797L29.0117 10.1595C26.6355 7.98102 23.4711 6.64961 20.0013 6.64961C16.5306 6.64961 13.3654 7.98125 10.9886 10.1599L7.87687 7.04813C8.03117 6.76188 8.11891 6.43469 8.11891 6.08734V5.81719ZM20.0013 7.82148C26.7152 7.82148 32.1774 13.2848 32.1774 20.0003C32.1774 26.7158 26.7152 32.1791 20.0013 32.1791C13.2859 32.1791 7.8225 26.7157 7.8225 20.0003C7.8225 13.2849 13.2859 7.82148 20.0013 7.82148ZM31.8812 3.47344V4.64531H8.11891V3.47344H31.8812ZM1.17188 6.08734V2.03148C1.17188 1.5575 1.5575 1.17188 2.03148 1.17188H6.08742C6.56141 1.17188 6.94703 1.5575 6.94703 2.03148V6.08734C6.94703 6.56133 6.56141 6.94695 6.08742 6.94695H2.03148C1.5575 6.94703 1.17188 6.56141 1.17188 6.08734ZM3.47344 8.11891H4.64523V27.3141C4.64523 27.6377 4.9075 27.9 5.23117 27.9C5.55484 27.9 5.81711 27.6377 5.81711 27.3141V8.11891H6.08742C6.43477 8.11891 6.76195 8.03109 7.0482 7.8768L10.16 10.9886C7.98188 13.3652 6.6507 16.5301 6.6507 20.0003C6.6507 23.4705 7.98195 26.6353 10.16 29.012L7.0482 32.1232C6.76195 31.9689 6.43484 31.8812 6.0875 31.8812H5.81719V30.0484C5.81719 29.7248 5.55492 29.4625 5.23125 29.4625C4.90758 29.4625 4.64531 29.7248 4.64531 30.0484V31.8811H3.47344V8.11891ZM6.94703 37.9685C6.94703 38.4425 6.56141 38.8281 6.08742 38.8281H2.03148C1.5575 38.8281 1.17188 38.4425 1.17188 37.9685V33.9127C1.17188 33.4387 1.5575 33.053 2.03148 33.053H6.08742C6.56141 33.053 6.94703 33.4387 6.94703 33.9127V37.9685ZM8.11891 36.5264V35.3545H31.8809V36.5264H8.11891ZM38.828 33.9127V37.9685C38.828 38.4425 38.4424 38.8281 37.9684 38.8281H33.9125C33.4385 38.8281 33.0529 38.4425 33.0529 37.9685V33.9127C33.0529 33.4387 33.4385 33.053 33.9125 33.053H37.9684C38.4424 33.053 38.828 33.4386 38.828 33.9127ZM36.5265 31.8811H35.3546V8.11875H36.5265V31.8811Z" fill="white"/>
</g>
<defs>
<clipPath id="clip0_6260_80">
<rect width="40" height="40" fill="white"/>
</clipPath>
</defs>
</svg>
