<svg width="40" height="40" viewBox="0 0 40 40" fill="none" xmlns="http://www.w3.org/2000/svg">
<g clip-path="url(#clip0_6260_58)">
<path d="M38.9872 7.82188C39.3109 7.82188 39.5732 7.55953 39.5732 7.23594V1.58047C39.5732 0.708984 38.8642 0 37.9927 0H30.9474C29.2907 0 27.7338 0.645 26.5636 1.81617L20.4401 7.94039C19.2864 9.09414 18.6247 10.6916 18.6247 12.3235V13.7523H12.7492C11.0931 13.7523 9.53613 14.3973 8.36512 15.5685L2.24215 21.6924C1.07152 22.8633 0.426758 24.42 0.426758 26.0757V38.4197C0.426758 39.2911 1.13566 40 2.00699 40H19.7948C20.6661 40 21.3751 39.2911 21.3751 38.4197V26.2477H37.9926C38.8641 26.2477 39.5731 25.5387 39.5731 24.6672V9.97031C39.5731 9.64672 39.3108 9.38438 38.9871 9.38438C38.6635 9.38438 38.4012 9.64672 38.4012 9.97031V24.6672C38.4012 24.8925 38.2178 25.0758 37.9926 25.0758H21.3751V15.3324C21.3751 14.4616 20.6671 13.7532 19.7965 13.7522V12.8313C19.7965 12.831 19.7965 12.8308 19.7965 12.8305C19.7965 11.592 20.804 10.5845 22.0425 10.5845H27.6272C28.4986 10.5845 29.2075 9.87562 29.2075 9.00422V3.41781C29.2075 2.17938 30.215 1.17188 31.4534 1.17188H37.9925C38.2178 1.17188 38.4011 1.35516 38.4011 1.58047V7.23594C38.4013 7.55953 38.6636 7.82188 38.9872 7.82188ZM9.19379 16.397C9.50426 16.0865 9.84855 15.8225 10.2178 15.6066C9.97543 16.0755 9.8377 16.6068 9.8377 17.17V22.7565C9.8377 22.9816 9.65449 23.1649 9.42934 23.1649H3.84457C3.28121 23.1649 2.74973 23.3028 2.28074 23.5452C2.4966 23.1759 2.76043 22.8316 3.0709 22.521L9.19379 16.397ZM20.2032 15.3324V38.4197C20.2032 38.6448 20.02 38.8281 19.7948 38.8281H2.00699C1.78184 38.8281 1.59863 38.6449 1.59863 38.4197V26.5827C1.59863 25.3442 2.60613 24.3367 3.84457 24.3367H9.42934C10.3007 24.3367 11.0096 23.6278 11.0096 22.7564V17.1699C11.0096 15.9315 12.0171 14.924 13.2555 14.924H19.7948C20.02 14.9241 20.2032 15.1073 20.2032 15.3324ZM28.0357 9.0043C28.0357 9.22945 27.8525 9.41273 27.6273 9.41273H22.0425C21.4819 9.41273 20.9529 9.5493 20.4857 9.78945C20.7013 9.41883 20.9633 9.07445 21.2688 8.76898L27.3924 2.64461C27.7025 2.33422 28.0467 2.07031 28.4157 1.85438C28.1734 2.32328 28.0357 2.85453 28.0357 3.41773V9.0043Z" fill="white"/>
<path d="M35.4523 14.5407H22.7454C22.4217 14.5407 22.1594 14.8031 22.1594 15.1266C22.1594 15.4502 22.4217 15.7126 22.7454 15.7126H35.4522C35.7759 15.7126 36.0382 15.4502 36.0382 15.1266C36.0382 14.8031 35.7759 14.5407 35.4523 14.5407Z" fill="white"/>
<path d="M35.4523 17.559H22.7454C22.4217 17.559 22.1594 17.8213 22.1594 18.1449C22.1594 18.4685 22.4217 18.7309 22.7454 18.7309H35.4522C35.7759 18.7309 36.0382 18.4685 36.0382 18.1449C36.0382 17.8213 35.7759 17.559 35.4523 17.559Z" fill="white"/>
<path d="M35.4523 20.5773H22.7454C22.4217 20.5773 22.1594 20.8397 22.1594 21.1633C22.1594 21.4869 22.4217 21.7492 22.7454 21.7492H35.4522C35.7759 21.7492 36.0382 21.4869 36.0382 21.1633C36.0382 20.8397 35.7759 20.5773 35.4523 20.5773Z" fill="white"/>
<path d="M17.2543 28.2929H4.54736C4.22377 28.2929 3.96143 28.5552 3.96143 28.8788C3.96143 29.2024 4.22377 29.4648 4.54736 29.4648H17.2543C17.5779 29.4648 17.8403 29.2024 17.8403 28.8788C17.8403 28.5552 17.5779 28.2929 17.2543 28.2929Z" fill="white"/>
<path d="M17.2543 31.3112H4.54736C4.22377 31.3112 3.96143 31.5736 3.96143 31.8972C3.96143 32.2208 4.22377 32.4831 4.54736 32.4831H17.2543C17.5779 32.4831 17.8403 32.2208 17.8403 31.8972C17.8403 31.5736 17.5779 31.3112 17.2543 31.3112Z" fill="white"/>
<path d="M17.2542 34.3297H10.1785C9.85487 34.3297 9.59253 34.592 9.59253 34.9156C9.59253 35.2392 9.85487 35.5016 10.1785 35.5016H17.2542C17.5778 35.5016 17.8402 35.2392 17.8402 34.9156C17.8402 34.592 17.5779 34.3297 17.2542 34.3297Z" fill="white"/>
<path d="M7.44424 34.3297H4.54736C4.22377 34.3297 3.96143 34.592 3.96143 34.9156C3.96143 35.2392 4.22377 35.5016 4.54736 35.5016H7.44424C7.76783 35.5016 8.03018 35.2392 8.03018 34.9156C8.03018 34.592 7.76783 34.3297 7.44424 34.3297Z" fill="white"/>
<path d="M34.2243 27.507C34.0067 27.1302 33.617 26.9052 33.1817 26.9052C32.7465 26.9052 32.3567 27.1302 32.139 27.5071L29.7039 31.7244C29.4862 32.1014 29.4862 32.5515 29.7039 32.9284C29.9215 33.3054 30.3112 33.5304 30.7465 33.5304H31.4239V36.4844H25.1377C24.1685 36.4844 23.3799 37.2729 23.3799 38.2422C23.3799 39.2115 24.1685 40 25.1377 40H33.1817C34.1509 40 34.9395 39.2115 34.9395 38.2422V33.5304H35.6171C36.0524 33.5304 36.4422 33.3053 36.6598 32.9283C36.8775 32.5513 36.8774 32.1012 36.6597 31.7243L34.2243 27.507ZM35.6449 32.3424C35.6356 32.3585 35.6253 32.3585 35.6171 32.3585H34.3536C34.0299 32.3585 33.7676 32.6209 33.7676 32.9444V38.2422C33.7676 38.5653 33.5048 38.8281 33.1817 38.8281H25.1377C24.8146 38.8281 24.5518 38.5653 24.5518 38.2422C24.5518 37.9191 24.8146 37.6562 25.1377 37.6562H32.0098C32.3335 37.6562 32.5957 37.3939 32.5957 37.0703V32.9444C32.5957 32.6209 32.3335 32.3585 32.0098 32.3585H30.7465C30.7383 32.3585 30.728 32.3585 30.7188 32.3425C30.7095 32.3264 30.7146 32.3175 30.7188 32.3103L33.1539 28.093C33.1581 28.0859 33.1632 28.077 33.1817 28.077C33.2002 28.077 33.2054 28.0858 33.2094 28.093L35.6448 32.3103C35.649 32.3175 35.6542 32.3264 35.6449 32.3424Z" fill="white"/>
<path d="M9.45584 12.4935C9.67381 12.8701 10.0634 13.0948 10.4984 13.0948H10.4994C10.9343 13.0945 11.3237 12.8694 11.5408 12.493L13.9758 8.27594C14.1937 7.89883 14.1938 7.44867 13.9762 7.07164C13.7587 6.69461 13.3687 6.46953 12.9333 6.46953H12.256V3.51562H13.2552C13.5788 3.51562 13.8412 3.25328 13.8412 2.92969C13.8412 2.60609 13.5788 2.34375 13.2552 2.34375H11.6701C11.3465 2.34375 11.0841 2.60609 11.0841 2.92969V7.05547C11.0841 7.37906 11.3465 7.64141 11.6701 7.64141H12.9333C12.9416 7.64141 12.952 7.64141 12.9613 7.6575C12.9705 7.67352 12.9655 7.68211 12.9611 7.68984L10.5258 11.9073C10.5216 11.9146 10.5169 11.9229 10.4986 11.9229C10.4797 11.9229 10.4744 11.9138 10.4705 11.907L8.03537 7.68984C8.03092 7.68219 8.02592 7.67359 8.03521 7.6575C8.04451 7.64141 8.05482 7.64141 8.06311 7.64141H9.32639C9.64998 7.64141 9.91232 7.37906 9.91232 7.05547V1.75781C9.91232 1.43469 10.1752 1.17188 10.4983 1.17188H18.542C18.8651 1.17188 19.1279 1.43469 19.1279 1.75781C19.1279 2.08086 18.8651 2.34375 18.542 2.34375H15.9897C15.6661 2.34375 15.4037 2.60609 15.4037 2.92969C15.4037 3.25328 15.6661 3.51562 15.9897 3.51562H18.542C19.5113 3.51562 20.2998 2.72711 20.2998 1.75781C20.2998 0.788516 19.5112 0 18.5419 0H10.4981C9.52881 0 8.74029 0.788516 8.74029 1.75781V6.46953H8.06295C7.62756 6.46953 7.23771 6.69461 7.02006 7.07164C6.80248 7.44867 6.80256 7.89883 7.02029 8.27586L9.45584 12.4935Z" fill="white"/>
</g>
<defs>
<clipPath id="clip0_6260_58">
<rect width="40" height="40" fill="white"/>
</clipPath>
</defs>
</svg>
