<svg width="67" height="22" viewBox="0 0 67 22" fill="none" xmlns="http://www.w3.org/2000/svg">
<path d="M0.88 2.06754H4.87V21.4775H0.88V2.06754Z" fill="#FE5E3A"/>
<path d="M8.32656 2.06754H28.7866V5.39754H8.32656V2.06754ZM16.5766 4.97754H20.5666V21.4775H16.5766V4.97754ZM42.3353 16.5275H46.1153C45.9553 17.5475 45.5253 18.4575 44.8253 19.2575C44.1453 20.0575 43.2153 20.6875 42.0353 21.1475C40.8553 21.6075 39.4153 21.8375 37.7153 21.8375C35.8153 21.8375 34.1353 21.5375 32.6753 20.9375C31.2153 20.3175 30.0753 19.4275 29.2553 18.2675C28.4353 17.1075 28.0253 15.7075 28.0253 14.0675C28.0253 12.4275 28.4253 11.0275 29.2253 9.86754C30.0253 8.68754 31.1353 7.78754 32.5553 7.16754C33.9953 6.54754 35.6753 6.23754 37.5953 6.23754C39.5553 6.23754 41.1853 6.54754 42.4853 7.16754C43.7853 7.78754 44.7453 8.72754 45.3653 9.98754C46.0053 11.2275 46.2753 12.8175 46.1753 14.7575H31.9553C32.0553 15.5175 32.3353 16.2075 32.7953 16.8275C33.2753 17.4475 33.9153 17.9375 34.7153 18.2975C35.5353 18.6575 36.5053 18.8375 37.6253 18.8375C38.8653 18.8375 39.8953 18.6275 40.7153 18.2075C41.5553 17.7675 42.0953 17.2075 42.3353 16.5275ZM37.4153 9.20754C35.9753 9.20754 34.8053 9.52754 33.9053 10.1675C33.0053 10.7875 32.4253 11.5575 32.1653 12.4775H42.3053C42.2053 11.4775 41.7253 10.6875 40.8653 10.1075C40.0253 9.50754 38.8753 9.20754 37.4153 9.20754ZM49.3473 0.567538H53.2473V21.4775H49.3473V0.567538ZM65.8173 6.56754L56.9373 14.3975L57.0273 11.9975L66.5073 21.4775H61.5573L53.3373 13.1075L60.5073 6.56754H65.8173Z" fill="#0C0C0C"/>
</svg>
