<svg width="67" height="22" viewBox="0 0 67 22" fill="none" xmlns="http://www.w3.org/2000/svg">
<path d="M0.88 1.59H4.87V21H0.88V1.59Z" fill="#FE5E3A"/>
<path d="M8.32656 1.59H28.7866V4.92H8.32656V1.59ZM16.5766 4.5H20.5666V21H16.5766V4.5ZM42.3353 16.05H46.1153C45.9553 17.07 45.5253 17.98 44.8253 18.78C44.1453 19.58 43.2153 20.21 42.0353 20.67C40.8553 21.13 39.4153 21.36 37.7153 21.36C35.8153 21.36 34.1353 21.06 32.6753 20.46C31.2153 19.84 30.0753 18.95 29.2553 17.79C28.4353 16.63 28.0253 15.23 28.0253 13.59C28.0253 11.95 28.4253 10.55 29.2253 9.39C30.0253 8.21 31.1353 7.31 32.5553 6.69C33.9953 6.07 35.6753 5.76 37.5953 5.76C39.5553 5.76 41.1853 6.07 42.4853 6.69C43.7853 7.31 44.7453 8.25 45.3653 9.51C46.0053 10.75 46.2753 12.34 46.1753 14.28H31.9553C32.0553 15.04 32.3353 15.73 32.7953 16.35C33.2753 16.97 33.9153 17.46 34.7153 17.82C35.5353 18.18 36.5053 18.36 37.6253 18.36C38.8653 18.36 39.8953 18.15 40.7153 17.73C41.5553 17.29 42.0953 16.73 42.3353 16.05ZM37.4153 8.73C35.9753 8.73 34.8053 9.05 33.9053 9.69C33.0053 10.31 32.4253 11.08 32.1653 12H42.3053C42.2053 11 41.7253 10.21 40.8653 9.63C40.0253 9.03 38.8753 8.73 37.4153 8.73ZM49.3473 0.0899992H53.2473V21H49.3473V0.0899992ZM65.8173 6.09L56.9373 13.92L57.0273 11.52L66.5073 21H61.5573L53.3373 12.63L60.5073 6.09H65.8173Z" fill="white"/>
</svg>
